<svg xmlns="http://www.w3.org/2000/svg" enable-background="new 0 0 192 192" height="192" viewBox="0 0 192 192" width="192"><rect fill="none" height="192" width="192"/><g><rect fill="#FFFFFF" height="14" width="76" x="58" y="98"/><rect fill="#FFFFFF" height="14" width="56" x="58" y="122"/><polygon fill="#1967D2" points="116,52 140.13,56.56 160,52 116,8 109.93,28.86"/><rect fill="#FFFFFF" height="14" width="76" x="58" y="74"/><path d="M116,52V8H44c-6.63,0-12,5.37-12,12v152c0,6.63,5.37,12,12,12h104c6.63,0,12-5.37,12-12V52H116z M112,134 H60v-10h52V134z M132,110H60v-10h72V110z M132,86H60V76h72V86z" fill="#4285F4"/></g></svg>