<svg xmlns="http://www.w3.org/2000/svg" enable-background="new 0 0 192 192" height="192" viewBox="0 0 192 192" width="192"><rect fill="none" height="192" width="192"/><g><polygon fill="#F29900" points="116,52 140.13,56.56 160,52 116,8 109.93,28.86"/><path d="M116,52V8H44c-6.63,0-12,5.37-12,12v152c0,6.63,5.37,12,12,12h104c6.63,0,12-5.37,12-12V52H116z" fill="#FBBC04"/><path d="M110,136H82v-10h28V136z M109.85,116h-27.7C74.85,111.4,70,103.27,70,94c0-14.36,11.64-26,26-26 c14.36,0,26,11.64,26,26C122,103.27,117.15,111.4,109.85,116z" fill="#FFFFFF"/></g></svg>