<svg xmlns="http://www.w3.org/2000/svg" enable-background="new 0 0 192 192" height="192" viewBox="0 0 192 192" width="192"><rect fill="none" height="192" width="192"/><g><polygon fill="#188038" points="116,8 160,52 138,56 116,52 112,30"/><path d="M116,52V8H44c-6.63,0-12,5.37-12,12v152c0,6.63,5.37,12,12,12h104c6.63,0,12-5.37,12-12V52H116z" fill="#34A853"/><path d="M56,76v58h80V76H56z M91,124H66v-14h25V124z M91,100H66V86h25V100z M126,124h-25v-14h25V124z M126,100h-25 V86h25V100z" fill="#FFFFFF"/></g></svg>